# xmcd CD database file
#
# Track frame offsets:
#	150
#	16462
#	36620
#	58508
#	76181
#	91916
#	105872
#	129203
#	146321
#	165680
#	183452
#	200713
#	217871
#	238395
#	254227
#
# Disc length: 3662 seconds
#
# Revision: 2
# Processed by: cddbd v1.5.2PL0 Copyright (c) Steve Scherf et al.
# Submitted via: CDex 1.51
#
DISCID=cf0e4c0f
DTITLE=NOTON - Note-On
DYEAR=2006
DGENRE=New Age
TTITLE0=봄은 겨울이 꾸는 꿈
TTITLE1=내 마음 가는 곳
TTITLE2=처음사랑
TTITLE3=When You Cry
TTITLE4=신주쿠 거리에서
TTITLE5=네가 있던 이곳에서
TTITLE6=별
TTITLE7=그대도 나처럼 외로울까
TTITLE8=Dream in dream
TTITLE9=내 어깨 위의 기억
TTITLE10=Winter Story
TTITLE11=With You
TTITLE12=Passion
TTITLE13=돌아오는 길에
TTITLE14=지구 반대편에서
EXTD=YEAR: 2006
EXTT0=
EXTT1=
EXTT2=
EXTT3=
EXTT4=
EXTT5=
EXTT6=
EXTT7=
EXTT8=
EXTT9=
EXTT10=
EXTT11=
EXTT12=
EXTT13=
EXTT14=
PLAYORDER=
